<svg width="19" height="17" viewBox="0 0 19 17" fill="none" xmlns="http://www.w3.org/2000/svg">
<path d="M18.4424 9.27842C18.9633 8.75756 18.9633 7.91168 18.4424 7.39082L11.7754 0.723777C11.2545 0.202914 10.4087 0.202914 9.88779 0.723777C9.36693 1.24464 9.36693 2.09052 9.88779 2.61138L14.2839 7.00329L1.49982 7.00329C0.762279 7.00329 0.166412 7.59916 0.166412 8.3367C0.166412 9.07424 0.762279 9.67011 1.49982 9.67011L14.2797 9.67011L9.89196 14.062C9.3711 14.5829 9.3711 15.4288 9.89196 15.9496C10.4128 16.4705 11.2587 16.4705 11.7796 15.9496L18.4466 9.28259L18.4424 9.27842Z" fill="#2C2B28"/>
</svg>
