<svg width="19" height="17" viewBox="0 0 19 17" fill="none" xmlns="http://www.w3.org/2000/svg">
<path d="M0.557649 7.72146C0.0367867 8.24232 0.0367867 9.0882 0.557649 9.60906L7.22469 16.2761C7.74555 16.797 8.59144 16.797 9.1123 16.2761C9.63316 15.7552 9.63316 14.9094 9.1123 14.3885L4.71622 9.99658L17.5003 9.99658C18.2378 9.99658 18.8337 9.40072 18.8337 8.66318C18.8337 7.92564 18.2378 7.32977 17.5003 7.32977L4.72038 7.32977L9.10813 2.93786C9.62899 2.417 9.62899 1.57111 9.10813 1.05025C8.58727 0.529388 7.74139 0.529388 7.22053 1.05025L0.553484 7.71729L0.557649 7.72146Z" fill="#2C2B28"/>
</svg>
