<svg width="25" height="21" viewBox="0 0 25 21" fill="none" xmlns="http://www.w3.org/2000/svg">
<path d="M21.8546 0.766357H3.14545C1.40916 0.766357 0 2.17552 0 3.9118V17.5882C0 19.3245 1.40916 20.7336 3.14545 20.7336H21.8546C23.5908 20.7336 25 19.3245 25 17.5882V3.9118C25 2.17552 23.5908 0.766357 21.8546 0.766357ZM3.14545 2.02454H21.8546C22.8485 2.02454 23.6663 2.79202 23.7292 3.7734C20.6215 5.4342 17.5013 7.08241 14.381 8.74321C13.9532 8.96968 13.5128 9.27164 13.0473 9.41004C12.2421 9.66168 11.613 9.27164 10.9462 8.91935C9.15954 7.97572 7.37292 7.0195 5.59889 6.07587C4.16457 5.32096 2.70508 4.55347 1.27076 3.78599C1.33367 2.80461 2.1389 2.02454 3.14545 2.02454ZM23.7418 17.5882C23.7418 18.6325 22.8988 19.4755 21.8546 19.4755H3.14545C2.10116 19.4755 1.25818 18.6325 1.25818 17.5882V5.20773C4.22748 6.76787 7.1842 8.35317 10.1535 9.9259C10.6945 10.2027 11.2481 10.555 11.852 10.6808C12.7579 10.8695 13.5883 10.5927 14.3684 10.1649C16.1928 9.20873 18.0045 8.23994 19.8289 7.28372C21.1374 6.57914 22.4333 5.89972 23.7418 5.20773V17.5882Z" fill="#6C9A8B"/>
</svg>
