<svg width="25" height="20" viewBox="0 0 25 20" fill="none" xmlns="http://www.w3.org/2000/svg">
<path d="M24.5486 0.21016C24.8307 0.405472 25 0.726653 25 1.06953V15.6529C25 16.0869 24.7309 16.4732 24.3273 16.6251L17.0356 19.4029C16.8099 19.4897 16.5625 19.494 16.3368 19.4159L8.35503 16.7596L1.41059 19.4072C1.08941 19.5287 0.729167 19.4853 0.447049 19.29C0.164931 19.0947 0 18.7735 0 18.4306V3.84731C0 3.41328 0.264757 3.027 0.672743 2.87509L7.96441 0.0973125C8.1901 0.010507 8.4375 0.00616674 8.66319 0.0842917L16.645 2.74054L23.5894 0.0929723C23.9106 -0.0285554 24.2708 0.0148474 24.553 0.21016H24.5486ZM2.08333 4.56346V16.9202L7.29167 14.9367V2.57995L2.08333 4.56346ZM15.625 16.9853V4.59818L9.375 2.51485V14.902L15.625 16.9853ZM17.7083 16.9202L22.9167 14.9367V2.57995L17.7083 4.56346V16.9202Z" fill="#6C9A8B"/>
</svg>
