<svg width="24" height="25" viewBox="0 0 24 25" fill="none" xmlns="http://www.w3.org/2000/svg">
<path d="M15.156 24.6673C6.79867 24.6673 0 17.8606 0 9.49528C0 6.83395 0.694667 4.22461 2.00533 1.94995C2.35467 1.34461 2.95733 0.945946 3.65867 0.853946C4.38 0.756613 5.08533 0.997946 5.59733 1.51128L9.784 5.69661C10.216 6.12861 10.4547 6.70328 10.4547 7.31528C10.4547 7.92728 10.216 8.50195 9.784 8.93395L9.38933 9.32861C8.384 10.3353 8.384 11.9699 9.38933 12.9753L11.684 15.2699C12.6573 16.2433 14.3573 16.2433 15.3307 15.2699L15.7173 14.8833C16.612 13.9899 18.064 13.9913 18.956 14.8833L23.1413 19.0686C23.6533 19.5806 23.892 20.2886 23.7973 21.0086C23.7053 21.7099 23.3053 22.3126 22.7013 22.6606C20.4253 23.9739 17.816 24.6673 15.156 24.6673ZM3.964 2.16728C3.92 2.16728 3.876 2.16995 3.832 2.17528C3.54533 2.21261 3.3 2.37395 3.16133 2.61661C1.964 4.68861 1.33333 7.06728 1.33333 9.49528C1.33333 17.1259 7.53333 23.3339 15.156 23.3339C17.5827 23.3339 19.9613 22.7019 22.0333 21.5059C22.2773 21.3659 22.4373 21.1206 22.4747 20.8353C22.5147 20.5286 22.4133 20.2286 22.1973 20.0113L18.012 15.8259C17.64 15.4526 17.032 15.4553 16.6587 15.8259L16.272 16.2126C14.7947 17.6913 12.2173 17.6886 10.74 16.2126L8.44533 13.9179C6.92 12.3926 6.92 9.91128 8.44533 8.38595L8.84 7.99128C9.02133 7.80995 9.12 7.56995 9.12 7.31528C9.12 7.06061 9.02133 6.82061 8.84 6.63928L4.65333 2.45261C4.46933 2.26728 4.22267 2.16728 3.964 2.16728Z" fill="#6C9A8B"/>
</svg>
